<?xml version="1.0" encoding="UTF-8" standalone="no"?>
<!DOCTYPE svg PUBLIC "-//W3C//DTD SVG 1.1//EN" "http://www.w3.org/Graphics/SVG/1.1/DTD/svg11.dtd">
<svg width="100%" height="100%" viewBox="0 0 1087 213" version="1.1" xmlns="http://www.w3.org/2000/svg" xmlns:xlink="http://www.w3.org/1999/xlink" xml:space="preserve" xmlns:serif="http://www.serif.com/" style="fill-rule:evenodd;clip-rule:evenodd;stroke-linejoin:round;stroke-miterlimit:2;">
    <g transform="matrix(1,0,0,1,-179.728,-241.447)">
        <g transform="matrix(47.5482,0,0,47.5482,-17232.6,-21518.4)">
            <path d="M369.088,462.084L369.088,462.023C369.1,462.023 369.129,462.019 369.176,462.011C369.222,462.003 369.271,461.989 369.321,461.969C369.372,461.949 369.416,461.92 369.454,461.884C369.493,461.848 369.512,461.801 369.512,461.745C369.512,461.708 369.501,461.649 369.479,461.566C369.456,461.483 369.425,461.382 369.385,461.263C369.344,461.144 369.298,461.012 369.245,460.866C369.193,460.721 369.136,460.57 369.076,460.412L367.465,460.412C367.404,460.566 367.346,460.712 367.289,460.851C367.232,460.991 367.176,461.131 367.119,461.272C367.035,461.49 366.992,461.644 366.992,461.732C366.992,461.785 367.008,461.828 367.041,461.863C367.073,461.897 367.114,461.925 367.165,461.948C367.215,461.97 367.27,461.986 367.328,461.996C367.387,462.006 367.442,462.015 367.495,462.023L367.495,462.084L366.205,462.084L366.205,462.017C366.31,462.005 366.4,461.977 366.474,461.932C366.549,461.888 366.592,461.858 366.605,461.842C366.633,461.813 366.679,461.747 366.744,461.642C366.808,461.537 366.887,461.381 366.98,461.175C367.065,460.985 367.16,460.769 367.265,460.527C367.37,460.285 367.478,460.036 367.589,459.779C367.7,459.523 367.81,459.264 367.919,459.004C368.028,458.743 368.131,458.5 368.228,458.274L368.167,458.141C368.24,458.108 368.306,458.07 368.364,458.026C368.423,457.981 368.474,457.935 368.519,457.886C368.563,457.838 368.6,457.791 368.631,457.747C368.661,457.703 368.684,457.666 368.7,457.638L368.749,457.638C368.874,457.973 368.993,458.291 369.106,458.592C369.219,458.893 369.327,459.182 369.43,459.461C369.533,459.74 369.633,460.009 369.73,460.27C369.827,460.53 369.924,460.788 370.021,461.042C370.065,461.167 370.107,461.271 370.145,461.354C370.183,461.437 370.227,461.531 370.275,461.636C370.283,461.652 370.301,461.68 370.33,461.72C370.358,461.761 370.395,461.802 370.442,461.845C370.488,461.887 370.546,461.924 370.614,461.957C370.683,461.989 370.764,462.007 370.857,462.011L370.857,462.084L369.088,462.084ZM368.294,458.413C368.27,458.466 368.235,458.549 368.188,458.662C368.142,458.775 368.085,458.912 368.016,459.073C367.947,459.235 367.872,459.418 367.789,459.622C367.706,459.826 367.616,460.047 367.519,460.285L369.027,460.285C368.959,460.103 368.889,459.921 368.818,459.74C368.748,459.558 368.679,459.383 368.612,459.216C368.546,459.048 368.485,458.895 368.431,458.755C368.376,458.616 368.331,458.502 368.294,458.413Z" style="fill-rule:nonzero;"/>
            <path d="M373.891,461.848L373.891,461.805C373.814,461.773 373.732,461.739 373.643,461.702C373.554,461.666 373.493,461.638 373.461,461.617L373.461,457.686L373.413,457.686L372.45,457.953L372.45,457.989L372.946,458.177L372.946,458.692C372.946,458.801 372.947,458.908 372.949,459.013C372.951,459.118 372.954,459.201 372.958,459.261C372.87,459.233 372.772,459.209 372.665,459.189C372.558,459.168 372.444,459.158 372.322,459.158C372.092,459.158 371.882,459.197 371.692,459.273C371.503,459.35 371.34,459.456 371.205,459.591C371.07,459.727 370.965,459.885 370.89,460.067C370.815,460.249 370.778,460.444 370.778,460.654C370.778,460.889 370.81,461.096 370.875,461.275C370.939,461.455 371.026,461.606 371.135,461.729C371.244,461.853 371.368,461.943 371.508,462.002C371.647,462.061 371.791,462.09 371.941,462.09C372.179,462.09 372.378,462.041 372.537,461.944C372.697,461.848 372.835,461.698 372.952,461.496L372.958,461.496L372.958,462.102L372.995,462.102L373.891,461.848ZM372.952,461.266C372.92,461.44 372.844,461.583 372.725,461.696C372.606,461.809 372.464,461.866 372.298,461.866C372.141,461.866 372.002,461.829 371.883,461.757C371.764,461.684 371.664,461.588 371.583,461.469C371.503,461.35 371.442,461.213 371.402,461.057C371.361,460.902 371.341,460.741 371.341,460.576C371.341,460.41 371.358,460.249 371.393,460.091C371.427,459.934 371.48,459.794 371.553,459.673C371.626,459.552 371.718,459.455 371.829,459.382C371.94,459.31 372.074,459.273 372.232,459.273C372.349,459.273 372.476,459.324 372.613,459.425C372.75,459.526 372.863,459.659 372.952,459.825L372.952,461.266Z" style="fill-rule:nonzero;"/>
            <path d="M379.561,460.836L379.5,460.818C379.452,460.939 379.401,461.055 379.349,461.166C379.296,461.277 379.231,461.38 379.155,461.475C379.078,461.57 378.986,461.654 378.879,461.726C378.772,461.799 378.638,461.858 378.476,461.902C378.408,461.922 378.329,461.938 378.24,461.951C378.151,461.963 378.064,461.972 377.98,461.978C377.895,461.984 377.817,461.988 377.746,461.99C377.676,461.992 377.624,461.993 377.592,461.993C377.511,461.993 377.43,461.988 377.35,461.978C377.269,461.968 377.194,461.956 377.126,461.941C377.057,461.927 376.998,461.91 376.95,461.89C376.902,461.87 376.869,461.85 376.853,461.829C376.817,461.773 376.796,461.686 376.789,461.569C376.783,461.452 376.778,461.329 376.774,461.199C376.774,461.062 376.773,460.938 376.771,460.827C376.769,460.716 376.768,460.608 376.768,460.503L376.768,459.401C376.768,459.279 376.769,459.162 376.771,459.049C376.773,458.936 376.775,458.821 376.777,458.704C376.779,458.587 376.782,458.458 376.786,458.316C376.79,458.207 376.816,458.119 376.862,458.053C376.909,457.986 376.964,457.935 377.029,457.898C377.093,457.862 377.162,457.836 377.235,457.82C377.307,457.804 377.37,457.791 377.422,457.783L377.422,457.723L375.49,457.723L375.49,457.783C375.595,457.795 375.695,457.82 375.79,457.856C375.885,457.892 375.961,457.945 376.017,458.013C376.041,458.042 376.06,458.08 376.072,458.129C376.084,458.177 376.093,458.233 376.099,458.295C376.105,458.358 376.108,458.425 376.108,458.498L376.108,460.236C376.108,460.358 376.107,460.476 376.105,460.591C376.103,460.706 376.101,460.812 376.099,460.909C376.097,461.006 376.096,461.082 376.096,461.139C376.096,461.204 376.093,461.269 376.087,461.336C376.081,461.402 376.074,461.466 376.066,461.527C376.058,461.587 376.046,461.641 376.032,461.687C376.018,461.734 376.001,461.769 375.981,461.793C375.924,461.858 375.847,461.908 375.748,461.944C375.649,461.981 375.549,462.007 375.448,462.023L375.448,462.084L379.336,462.084L379.561,460.836Z" style="fill-rule:nonzero;"/>
            <path d="M382.347,461.49L382.31,461.49C382.294,461.551 382.264,461.6 382.22,461.639C382.175,461.677 382.107,461.696 382.014,461.696C381.933,461.696 381.861,461.667 381.799,461.608C381.736,461.55 381.705,461.43 381.705,461.248C381.705,461.111 381.706,460.984 381.708,460.869C381.71,460.754 381.711,460.642 381.711,460.533C381.711,460.424 381.712,460.311 381.714,460.194C381.716,460.077 381.717,459.946 381.717,459.8C381.717,459.732 381.715,459.662 381.711,459.591C381.707,459.521 381.697,459.471 381.68,459.443C381.64,459.362 381.573,459.295 381.481,459.24C381.388,459.186 381.289,459.158 381.184,459.158C381.131,459.158 381.064,459.17 380.981,459.195C380.898,459.219 380.807,459.251 380.708,459.292C380.609,459.332 380.505,459.38 380.396,459.437C380.287,459.493 380.18,459.552 380.075,459.613C380.043,459.633 380.006,459.655 379.963,459.679C379.921,459.703 379.882,459.732 379.845,459.764C379.809,459.796 379.779,459.833 379.754,459.873C379.73,459.913 379.718,459.958 379.718,460.006C379.718,460.067 379.741,460.12 379.788,460.167C379.834,460.213 379.89,460.236 379.954,460.236C380.023,460.236 380.086,460.214 380.145,460.17C380.204,460.125 380.233,460.075 380.233,460.018L380.233,459.746C380.233,459.722 380.247,459.692 380.275,459.658C380.304,459.624 380.342,459.589 380.39,459.555C380.439,459.521 380.494,459.492 380.557,459.47C380.62,459.448 380.683,459.437 380.748,459.437C380.845,459.437 380.923,459.45 380.984,459.476C381.045,459.503 381.092,459.532 381.126,459.564C381.161,459.596 381.185,459.628 381.199,459.658C381.213,459.688 381.22,459.707 381.22,459.716L381.22,460.339C381.18,460.364 381.13,460.391 381.072,460.421C381.013,460.451 380.946,460.488 380.869,460.53C380.792,460.573 380.702,460.624 380.599,460.685C380.496,460.745 380.378,460.818 380.245,460.903C380.112,460.987 380,461.082 379.909,461.187C379.818,461.292 379.773,461.401 379.773,461.514C379.773,461.619 379.79,461.708 379.824,461.781C379.858,461.854 379.903,461.913 379.957,461.96C380.012,462.006 380.072,462.038 380.139,462.057C380.206,462.075 380.271,462.084 380.336,462.084C380.445,462.084 380.545,462.067 380.636,462.032C380.727,461.998 380.809,461.953 380.884,461.896C380.959,461.84 381.023,461.779 381.078,461.714C381.132,461.65 381.176,461.591 381.208,461.539L381.22,461.545C381.22,461.747 381.274,461.888 381.381,461.969C381.488,462.049 381.61,462.09 381.747,462.09C381.832,462.09 381.91,462.075 381.98,462.044C382.051,462.014 382.113,461.97 382.165,461.911C382.218,461.853 382.26,461.787 382.292,461.714C382.325,461.642 382.343,461.567 382.347,461.49ZM381.22,461.369C381.22,461.438 381.196,461.494 381.147,461.539C381.079,461.607 381.004,461.654 380.923,461.678C380.843,461.702 380.75,461.714 380.645,461.714C380.528,461.714 380.433,461.672 380.36,461.587C380.287,461.502 380.251,461.407 380.251,461.302C380.251,461.197 380.288,461.104 380.363,461.021C380.438,460.938 380.527,460.862 380.63,460.794C380.733,460.725 380.839,460.661 380.948,460.603C381.057,460.544 381.147,460.489 381.22,460.436L381.22,461.369Z" style="fill-rule:nonzero;"/>
            <path d="M384.37,459.219L383.249,459.219L383.249,458.692L383.201,458.692L382.323,459.522L382.323,459.588L382.765,459.588C382.765,459.855 382.763,460.159 382.759,460.5C382.755,460.841 382.753,461.201 382.753,461.581C382.753,461.646 382.772,461.709 382.81,461.772C382.848,461.834 382.898,461.891 382.959,461.941C383.019,461.992 383.089,462.03 383.167,462.057C383.246,462.083 383.328,462.096 383.413,462.096C383.542,462.096 383.654,462.081 383.749,462.05C383.844,462.02 383.927,461.978 383.997,461.923C384.068,461.869 384.124,461.808 384.167,461.742C384.209,461.675 384.243,461.611 384.267,461.551L384.23,461.533C384.174,461.613 384.107,461.673 384.031,461.711C383.954,461.75 383.857,461.769 383.74,461.769C383.599,461.769 383.483,461.722 383.395,461.63C383.306,461.537 383.261,461.387 383.261,461.181L383.261,459.588L384.182,459.588L384.37,459.219Z" style="fill-rule:nonzero;"/>
            <path d="M386.829,461.163L386.78,461.151C386.732,461.3 386.632,461.427 386.481,461.53C386.329,461.633 386.153,461.684 385.951,461.684C385.765,461.684 385.601,461.65 385.46,461.581C385.319,461.512 385.202,461.419 385.109,461.299C385.016,461.18 384.945,461.043 384.897,460.888C384.848,460.732 384.824,460.57 384.824,460.4C384.824,460.356 384.826,460.312 384.83,460.27C384.834,460.227 384.836,460.19 384.836,460.158L386.78,460.158C386.768,459.988 386.73,459.841 386.665,459.716C386.601,459.59 386.517,459.486 386.414,459.404C386.311,459.321 386.19,459.259 386.051,459.219C385.911,459.178 385.763,459.158 385.605,459.158C385.412,459.158 385.235,459.2 385.075,459.282C384.916,459.365 384.781,459.473 384.67,459.606C384.559,459.74 384.473,459.89 384.412,460.058C384.352,460.225 384.321,460.394 384.321,460.563C384.321,460.773 384.354,460.972 384.418,461.16C384.483,461.348 384.575,461.511 384.694,461.651C384.813,461.79 384.957,461.898 385.127,461.975C385.297,462.052 385.484,462.09 385.69,462.09C385.856,462.09 386.006,462.06 386.141,461.999C386.277,461.938 386.393,461.862 386.49,461.769C386.587,461.676 386.663,461.574 386.72,461.463C386.776,461.352 386.813,461.252 386.829,461.163ZM386.181,459.806C386.181,459.863 386.174,459.905 386.16,459.934C386.146,459.962 386.124,459.992 386.096,460.024C386.056,460.041 386.009,460.051 385.957,460.055C385.904,460.059 385.848,460.061 385.787,460.061C385.694,460.061 385.609,460.062 385.533,460.064C385.456,460.066 385.382,460.068 385.312,460.07C385.241,460.072 385.169,460.073 385.097,460.073L384.848,460.073C384.856,460.024 384.879,459.955 384.915,459.864C384.951,459.773 385.003,459.683 385.069,459.594C385.136,459.506 385.215,459.428 385.306,459.361C385.396,459.295 385.498,459.261 385.611,459.261C385.785,459.261 385.923,459.315 386.026,459.422C386.129,459.529 386.181,459.657 386.181,459.806Z" style="fill-rule:nonzero;"/>
            <path d="M389.064,459.479C389.064,459.386 389.029,459.31 388.958,459.249C388.887,459.189 388.802,459.158 388.701,459.158C388.575,459.158 388.464,459.193 388.367,459.261C388.271,459.33 388.188,459.412 388.119,459.507C388.05,459.601 387.994,459.695 387.95,459.788C387.905,459.881 387.873,459.952 387.853,460L387.84,460L387.853,459.158L387.816,459.158L387.023,459.467L387.023,459.504C387.071,459.524 387.12,459.549 387.168,459.579C387.217,459.61 387.259,459.635 387.295,459.655C387.324,459.675 387.341,459.693 387.347,459.709C387.353,459.726 387.356,459.75 387.356,459.782L387.356,461.829C387.356,461.894 387.323,461.94 387.256,461.969C387.189,461.997 387.11,462.015 387.017,462.023L387.017,462.084L388.373,462.084L388.373,462.023C388.333,462.015 388.286,462.01 388.231,462.008C388.177,462.006 388.124,462.001 388.074,461.993C388.023,461.985 387.978,461.971 387.937,461.951C387.897,461.93 387.871,461.902 387.859,461.866L387.859,460.121C387.883,460.061 387.911,459.997 387.943,459.931C387.976,459.864 388.012,459.804 388.052,459.752C388.093,459.699 388.136,459.656 388.183,459.622C388.229,459.587 388.277,459.57 388.325,459.57C388.382,459.57 388.426,459.581 388.458,459.603C388.491,459.626 388.521,459.651 388.549,459.679C388.577,459.707 388.611,459.733 388.649,459.755C388.687,459.777 388.739,459.788 388.804,459.788C388.872,459.788 388.933,459.759 388.985,459.7C389.038,459.642 389.064,459.568 389.064,459.479Z" style="fill-rule:nonzero;"/>
        </g>
    </g>
</svg>
